<svg xmlns="http://www.w3.org/2000/svg" xmlns:xlink="http://www.w3.org/1999/xlink" width="500" zoomAndPan="magnify" viewBox="0 0 375 374.999991" height="500" preserveAspectRatio="xMidYMid meet" version="1.0"><defs><clipPath id="a47df4f58d"><path d="M 80.007812 157.402344 L 295.257812 157.402344 L 295.257812 187.402344 L 80.007812 187.402344 Z M 80.007812 157.402344 " clip-rule="nonzero"/></clipPath></defs><g clip-path="url(#a47df4f58d)"><path fill="#ca974d" d="M 294.566406 171.695312 L 209.304688 171.695312 L 203.554688 165.96875 L 287.4375 165.96875 C 287.820312 165.96875 288.128906 165.664062 288.128906 165.285156 C 288.128906 164.902344 287.820312 164.597656 287.4375 164.597656 C 195.519531 164.597656 201.804688 164.550781 201.558594 164.683594 C 201.421875 164.757812 201.75 164.449219 198.324219 167.859375 L 188.121094 157.699219 C 187.863281 157.441406 187.402344 157.441406 187.144531 157.699219 L 176.9375 167.859375 C 173.59375 164.53125 173.816406 164.722656 173.636719 164.648438 C 173.4375 164.566406 177.320312 164.597656 87.828125 164.597656 C 87.445312 164.597656 87.136719 164.902344 87.136719 165.285156 C 87.136719 165.664062 87.445312 165.96875 87.828125 165.96875 L 171.707031 165.96875 L 165.960938 171.695312 L 80.699219 171.695312 C 80.316406 171.695312 80.007812 172 80.007812 172.382812 C 80.007812 172.761719 80.316406 173.066406 80.699219 173.066406 L 165.960938 173.066406 L 171.707031 178.792969 L 87.828125 178.792969 C 87.445312 178.792969 87.136719 179.101562 87.136719 179.480469 C 87.136719 179.859375 87.445312 180.167969 87.828125 180.167969 C 177.246094 180.167969 173.488281 180.230469 173.757812 180.050781 C 173.839844 179.996094 173.589844 180.234375 176.9375 176.902344 L 187.144531 187.0625 C 187.414062 187.332031 187.851562 187.332031 188.121094 187.0625 L 198.324219 176.902344 C 201.539062 180.101562 201.472656 180.097656 201.753906 180.152344 C 201.859375 180.175781 197.894531 180.167969 287.4375 180.167969 C 287.820312 180.167969 288.128906 179.859375 288.128906 179.480469 C 288.128906 179.101562 287.820312 178.792969 287.4375 178.792969 L 203.554688 178.792969 L 209.304688 173.066406 L 294.566406 173.066406 C 294.949219 173.066406 295.257812 172.761719 295.257812 172.382812 C 295.257812 172 294.949219 171.695312 294.566406 171.695312 Z M 173.375 178.507812 L 167.222656 172.382812 L 173.375 166.253906 L 175.960938 168.832031 L 172.886719 171.894531 C 172.617188 172.164062 172.617188 172.597656 172.886719 172.867188 L 175.964844 175.929688 Z M 176.9375 169.804688 L 179.527344 172.382812 L 176.9375 174.957031 L 174.351562 172.382812 Z M 187.632812 185.605469 L 177.914062 175.929688 L 180.992188 172.867188 C 181.261719 172.597656 181.261719 172.164062 180.992188 171.894531 L 177.914062 168.832031 L 187.632812 159.15625 L 197.351562 168.832031 L 194.273438 171.894531 C 194.003906 172.164062 194.003906 172.597656 194.273438 172.867188 L 197.351562 175.929688 Z M 198.324219 169.804688 L 200.914062 172.382812 L 198.324219 174.957031 L 195.738281 172.382812 Z M 201.890625 178.507812 L 199.300781 175.929688 L 202.378906 172.867188 C 202.648438 172.597656 202.648438 172.164062 202.378906 171.894531 L 199.300781 168.832031 L 201.890625 166.253906 L 208.042969 172.382812 Z M 201.890625 178.507812 " fill-opacity="1" fill-rule="nonzero"/></g></svg>